<svg xmlns="http://www.w3.org/2000/svg" xmlns:xlink="http://www.w3.org/1999/xlink" width="500" zoomAndPan="magnify" viewBox="0 0 375 374.999991" height="500" preserveAspectRatio="xMidYMid meet" version="1.0"><defs><clipPath id="1b4176fe70"><path d="M 224 144 L 324.589844 144 L 324.589844 310 L 224 310 Z M 224 144 " clip-rule="nonzero"/></clipPath><clipPath id="cde40151d9"><path d="M 67 157 L 286 157 L 286 360.152344 L 67 360.152344 Z M 67 157 " clip-rule="nonzero"/></clipPath><clipPath id="163e06825a"><path d="M 88 15.152344 L 242 15.152344 L 242 180 L 88 180 Z M 88 15.152344 " clip-rule="nonzero"/></clipPath><clipPath id="1ac3d9c5a0"><path d="M 50.089844 28 L 279 28 L 279 303 L 50.089844 303 Z M 50.089844 28 " clip-rule="nonzero"/></clipPath></defs><g clip-path="url(#1b4176fe70)"><path fill="#34282c" d="M 232.328125 210.933594 C 227.390625 216.660156 222.71875 230.457031 226.09375 241.386719 C 232.328125 245.554688 245.832031 242.949219 250.507812 243.992188 C 255.183594 245.03125 262.71875 251.796875 266.871094 254.402344 C 271.03125 257.003906 280.640625 258.566406 283.757812 266.894531 C 286.875 275.226562 282.71875 298.390625 287.652344 309.582031 C 300.378906 305.9375 300.640625 297.605469 307.394531 293.183594 C 314.148438 288.757812 325.3125 279.910156 324.015625 266.632812 C 322.71875 253.359375 304.535156 247.894531 302.199219 242.949219 C 299.863281 238.003906 303.5 233.058594 300.640625 228.113281 C 297.785156 223.167969 289.730469 222.648438 287.394531 214.578125 C 285.054688 206.511719 302.976562 198.960938 302.976562 182.042969 C 302.976562 165.125 286.355469 154.976562 281.679688 144.300781 C 266.355469 152.890625 237.519531 189.851562 237.519531 189.851562 Z M 232.328125 210.933594 " fill-opacity="1" fill-rule="nonzero"/></g><path fill="#fea937" d="M 207.152344 203.257812 C 207.664062 221.4375 222.097656 238.53125 236.375 235.011719 C 250.035156 231.644531 262.0625 217.683594 259.101562 199.746094 C 256.375 183.21875 244.9375 168.050781 230.296875 169.4375 C 215.65625 170.824219 206.644531 185.132812 207.152344 203.257812 Z M 214.425781 197.140625 C 214.035156 182.566406 220.613281 172.054688 230.457031 171.121094 C 240.300781 170.191406 249.042969 182.109375 250.402344 196.492188 C 251.757812 210.875 245.210938 222.273438 235.367188 223.207031 C 225.523438 224.140625 214.8125 211.585938 214.425781 197.144531 Z M 214.425781 197.140625 " fill-opacity="1" fill-rule="nonzero"/><g clip-path="url(#cde40151d9)"><path fill="#944421" d="M 233.367188 204.039062 C 222.457031 212.238281 216.222656 229.027344 222.066406 246.59375 C 232.976562 255.1875 246.273438 248.464844 262.195312 257.136719 C 280.117188 266.898438 278.558594 277.441406 280.507812 292.277344 C 282.457031 307.113281 285.574219 319.605469 285.574219 319.605469 C 261.675781 345.242188 228.53125 325.566406 187.390625 334.3125 C 158.710938 340.40625 140.117188 360.15625 109.230469 360.15625 C 82.359375 360.15625 64.832031 344.886719 67.777344 319.605469 C 68.214844 315.855469 68.9375 310.285156 69.902344 306.179688 C 108.429688 316.871094 128.644531 298.058594 134.140625 283.296875 C 141.414062 263.773438 166.242188 277.238281 169.988281 251.800781 C 172.324219 235.921875 148.113281 222.867188 149.636719 218.363281 C 155.421875 201.234375 157.390625 180.578125 157.390625 158.359375 C 173.753906 155.234375 202.585938 167.730469 202.585938 167.730469 L 233.363281 204.039062 Z M 233.367188 204.039062 " fill-opacity="1" fill-rule="nonzero"/></g><g clip-path="url(#163e06825a)"><path fill="#34282c" d="M 241.15625 43.183594 C 232.585938 36.546875 227.554688 24.320312 215.441406 23.664062 C 201.027344 22.882812 189.210938 14.425781 176.484375 15.207031 C 163.753906 15.984375 158.820312 21.972656 151.808594 23.535156 C 144.792969 25.09375 140.121094 22.492188 134.925781 25.617188 C 129.730469 28.742188 124.277344 39.414062 120.121094 42.535156 C 115.960938 45.65625 113.363281 46.179688 109.730469 50.601562 C 106.09375 55.027344 100.121094 56.328125 98.300781 62.054688 C 96.484375 67.78125 95.964844 78.714844 93.886719 84.179688 C 91.808594 89.644531 87.390625 91.46875 88.171875 100.578125 C 88.949219 109.6875 91.546875 119.839844 94.40625 125.824219 C 97.261719 131.808594 98.820312 137.277344 99.339844 140.398438 C 99.863281 143.523438 103.496094 141.441406 105.316406 145.605469 C 107.132812 149.765625 100.640625 157.054688 103.757812 160.960938 C 106.875 164.863281 120.902344 173.714844 122.71875 179.960938 C 126.875 173.714844 123.757812 166.945312 125.835938 163.5625 C 127.914062 160.179688 130.773438 156.535156 130.25 152.632812 C 129.730469 148.726562 122.199219 138.835938 120.902344 132.328125 C 119.601562 125.820312 122.199219 119.054688 124.277344 113.066406 C 126.355469 107.082031 124.277344 94.847656 124.535156 89.121094 C 124.796875 83.394531 129.210938 75.328125 130.511719 69.601562 C 131.808594 63.875 138.5625 58.929688 140.898438 55.542969 C 143.238281 52.160156 144.277344 47.476562 148.953125 46.433594 C 153.628906 45.394531 156.484375 38.367188 164.535156 36.804688 C 172.589844 35.246094 177.265625 32.640625 181.679688 30.296875 C 186.09375 27.957031 201.417969 29.386719 205.316406 33.8125 C 209.210938 38.234375 227.132812 42.789062 227.132812 42.789062 L 241.160156 43.183594 Z M 241.15625 43.183594 " fill-opacity="1" fill-rule="nonzero"/></g><path fill="#662c2a" d="M 224.015625 205.730469 C 217.261719 213.796875 215.183594 229.414062 215.703125 235.402344 C 216.222656 241.386719 193.625 230.457031 187.910156 223.429688 C 180.117188 234.621094 165.050781 239.828125 154.921875 231.757812 C 168.6875 226.554688 175.871094 216.898438 178.558594 208.59375 C 181.675781 198.964844 179.859375 188.8125 177.78125 179.703125 C 189.207031 189.332031 224.011719 205.734375 224.011719 205.734375 Z M 224.015625 205.730469 " fill-opacity="1" fill-rule="nonzero"/><g clip-path="url(#1ac3d9c5a0)"><path fill="#34282c" d="M 276.742188 89.125 C 279.859375 75.328125 277.78125 67 274.40625 63.355469 C 271.03125 59.710938 266.355469 61.273438 262.976562 55.808594 C 259.601562 50.339844 256.742188 44.875 250.507812 42.273438 C 244.277344 39.671875 234.515625 39.066406 228.691406 37.070312 C 221.484375 34.597656 210.769531 26.65625 199.078125 28.738281 C 187.390625 30.824219 182.324219 36.742188 175.898438 39.476562 C 171.558594 41.320312 165.0625 41.863281 161.089844 44.160156 C 156.027344 47.089844 153.6875 51.773438 148.816406 53.921875 C 147.363281 54.5625 147.15625 56.898438 145.863281 57.980469 C 143.175781 60.226562 140.574219 62.984375 138.101562 66.609375 C 131.382812 76.476562 135.441406 91.46875 134.140625 99.535156 C 132.84375 107.605469 124.789062 116.195312 128.167969 129.730469 C 131.542969 143.261719 135.4375 142.222656 137.515625 150.03125 C 139.597656 157.839844 133.882812 160.441406 133.621094 170.59375 C 133.359375 180.746094 131.800781 186.472656 122.191406 192.71875 C 112.582031 198.964844 101.085938 189.007812 88.941406 194.277344 C 77.902344 199.070312 77.515625 213.539062 68.164062 216.664062 C 58.8125 219.789062 52.449219 222.796875 50.832031 232.734375 C 49.273438 242.300781 54.664062 247.375 60.378906 254.660156 C 66.09375 261.949219 54.402344 279.648438 68.167969 294.484375 C 81.933594 309.320312 115.117188 304.050781 123.6875 283.488281 C 132.261719 262.925781 146.609375 261.167969 153.882812 260.648438 C 161.15625 260.128906 175.445312 249.003906 165.960938 230.976562 C 154.664062 209.503906 154.988281 169.417969 161.480469 157.96875 C 167.976562 146.515625 146.609375 129.207031 145.3125 126.867188 C 144.011719 124.523438 140.898438 113.070312 150.25 109.949219 C 159.601562 106.824219 165.574219 112.8125 166.875 116.976562 C 168.171875 121.136719 170.25 125.824219 173.367188 125.824219 C 176.484375 125.824219 180.121094 125.5625 180.898438 121.398438 C 181.679688 117.234375 177.003906 108.90625 179.082031 103.179688 C 181.160156 97.453125 192.589844 97.453125 197.261719 94.070312 C 201.9375 90.6875 205.835938 72.46875 214.925781 67 C 224.015625 61.535156 229.734375 61.015625 238.042969 61.273438 C 246.355469 61.535156 260.902344 61.273438 266.875 71.425781 C 272.847656 81.574219 272.847656 89.125 272.847656 89.125 L 276.746094 89.125 Z M 276.742188 89.125 " fill-opacity="1" fill-rule="nonzero"/></g><path fill="#fea937" d="M 141.675781 126.085938 C 144.535156 121.398438 145.835938 120.097656 152.324219 119.316406 C 151.546875 108.386719 147.132812 92.769531 140.378906 87.042969 C 133.625 81.316406 116.480469 77.671875 113.625 75.585938 C 115.703125 84.4375 111.359375 97.460938 117.0625 107.210938 C 123.6875 118.535156 141.675781 126.082031 141.675781 126.082031 Z M 141.675781 126.085938 " fill-opacity="1" fill-rule="nonzero"/><path fill="#fea937" d="M 144.074219 137.730469 C 133.140625 142.15625 122.195312 144.304688 113.625 155.234375 C 106.246094 164.644531 110.394531 175.671875 101.15625 184.386719 C 119.339844 185.949219 135.464844 179.453125 142.449219 169.050781 C 149.441406 158.652344 152.199219 147.460938 152.199219 147.460938 L 144.070312 137.730469 Z M 144.074219 137.730469 " fill-opacity="1" fill-rule="nonzero"/><path fill="#944421" d="M 266.871094 71.425781 C 275.445312 79.234375 281.484375 99.730469 284.601562 114.046875 C 283.5625 120.816406 280.378906 126.605469 280.378906 126.605469 C 281.421875 131.027344 280.511719 135.714844 280.511719 135.714844 C 281.167969 136.832031 281.84375 137.898438 282.5 138.898438 C 286.054688 144.269531 287.132812 150.90625 285.472656 157.136719 C 282.382812 168.734375 278.519531 184.753906 276.773438 201.570312 C 275.722656 211.664062 266.371094 218.226562 256.3125 217.011719 C 226.351562 213.40625 181.742188 201.109375 164.015625 165.644531 C 154.664062 171.109375 151.289062 164.863281 148.691406 158.097656 C 146.09375 151.328125 138.300781 142.21875 138.300781 132.066406 C 138.300781 121.398438 145.75 114.644531 153.625 115.410156 C 161.675781 116.191406 166.601562 124.132812 168.171875 129.203125 C 170.507812 136.753906 187.109375 138.089844 184.535156 123.476562 C 182.976562 114.628906 184.273438 106.5625 192.585938 102.132812 C 200.898438 97.710938 208.429688 95.367188 212.066406 84.695312 C 215.703125 74.023438 229.988281 66.996094 242.195312 66.996094 C 254.40625 66.996094 266.871094 71.417969 266.871094 71.417969 Z M 266.871094 71.425781 " fill-opacity="1" fill-rule="nonzero"/><path fill="#662c2a" d="M 278.105469 170.070312 C 277.132812 170.851562 275.769531 171.632812 273.917969 171.632812 C 273.042969 171.632812 270.21875 170.070312 267.6875 170.070312 C 262.328125 170.070312 255.414062 179.34375 249.277344 182.175781 C 252.394531 185.300781 259.210938 194.277344 273.042969 194.277344 C 278.496094 194.277344 282.003906 188.8125 279.765625 182.175781 C 280.933594 179.734375 281.714844 177.882812 281.714844 176.027344 C 281.714844 174.171875 280.730469 170.070312 278.109375 170.070312 Z M 278.105469 170.070312 " fill-opacity="1" fill-rule="nonzero"/><path fill="#662c2a" d="M 270.332031 159.402344 C 267.394531 157.191406 263.707031 155.703125 260.671875 157.300781 C 258.113281 158.648438 260.570312 160.769531 262.875 160.132812 C 265.578125 159.386719 270.335938 159.402344 270.335938 159.402344 Z M 270.332031 159.402344 " fill-opacity="1" fill-rule="nonzero"/><path fill="#662c2a" d="M 277.699219 156.601562 C 280.589844 156.601562 277.910156 160.117188 275.265625 159.238281 C 275.429688 157.917969 276.453125 156.601562 277.699219 156.601562 Z M 277.699219 156.601562 " fill-opacity="1" fill-rule="nonzero"/><path fill="#34282c" d="M 245.28125 132.496094 C 241.679688 135.226562 228.625 134.445312 224.242188 131.910156 C 219.46875 134.9375 211.777344 136.886719 207.878906 134.25 C 210.121094 137.570312 218.691406 137.863281 222.390625 135.714844 C 221.710938 137.082031 219.082031 138.445312 218.105469 138.839844 C 222.683594 142.351562 237.101562 142.253906 242.847656 139.519531 C 244.40625 136.984375 245.28125 132.496094 245.28125 132.496094 Z M 245.28125 132.496094 " fill-opacity="1" fill-rule="nonzero"/><path fill="#34282c" d="M 271.027344 120.878906 C 272.546875 116.453125 274.652344 112.289062 276.058594 111.117188 C 277.460938 109.949219 282.960938 107.992188 283.78125 108.125 C 285.183594 110.597656 285.183594 115.152344 285.183594 115.152344 C 282.492188 115.410156 275.707031 116.84375 274.304688 117.882812 C 272.898438 118.925781 271.027344 120.878906 271.027344 120.878906 Z M 271.027344 120.878906 " fill-opacity="1" fill-rule="nonzero"/><path fill="#34282c" d="M 249.066406 118.300781 C 249.628906 118.300781 250.066406 117.8125 250 117.253906 C 249.617188 114.015625 249.070312 110.15625 247.78125 109.683594 C 246.355469 109.164062 228.300781 106.042969 224.925781 106.5625 C 221.546875 107.082031 212.195312 110.464844 207.78125 117.230469 C 215.445312 113.585938 224.664062 112.414062 226.613281 112.546875 C 228.5625 112.675781 239.859375 116.191406 242.066406 117.363281 C 244.765625 118.171875 247.585938 118.296875 249.066406 118.296875 Z M 249.066406 118.300781 " fill-opacity="1" fill-rule="nonzero"/><path fill="#34282c" d="M 280.410156 131.261719 C 278.226562 132.472656 274.933594 133.175781 271.289062 132.496094 C 272.414062 135.421875 273.457031 137.472656 275.105469 138.9375 C 278.402344 139.816406 284.222656 139.664062 286.199219 137.925781 C 285.347656 137.535156 283.054688 136.171875 282.460938 134.804688 C 285.6875 136.949219 293.164062 136.65625 295.117188 133.339844 C 291.84375 135.878906 285.496094 134.160156 281.3125 131.324219 C 281.035156 131.136719 280.695312 131.101562 280.410156 131.261719 Z M 280.410156 131.261719 " fill-opacity="1" fill-rule="nonzero"/><path fill="#662c2a" d="M 161.675781 136.234375 C 159.042969 142.609375 160.808594 150.03125 155.574219 150.03125 C 150.335938 150.03125 144.535156 142.613281 144.535156 135.714844 C 144.535156 128.816406 146.570312 123.222656 151.808594 123.222656 C 157.042969 123.222656 164.792969 128.691406 161.675781 136.238281 Z M 161.675781 136.234375 " fill-opacity="1" fill-rule="nonzero"/><path fill="#fea937" d="M 167.132812 168.25 C 167.132812 172.273438 163.746094 174.105469 159.726562 174.105469 C 155.710938 174.105469 153.625 170.453125 153.625 166.429688 C 153.625 162.402344 156.363281 159.660156 160.378906 159.660156 C 164.398438 159.660156 167.132812 164.222656 167.132812 168.25 Z M 167.132812 168.25 " fill-opacity="1" fill-rule="nonzero"/><path fill="#fea937" d="M 160.222656 169.4375 C 145.585938 168.050781 134.144531 183.214844 131.417969 199.742188 C 128.457031 217.683594 140.480469 231.644531 154.144531 235.007812 C 168.421875 238.53125 182.855469 221.433594 183.363281 203.257812 C 183.871094 185.128906 174.863281 170.824219 160.222656 169.4375 Z M 155.152344 223.203125 C 145.308594 222.273438 138.765625 210.871094 140.121094 196.488281 C 141.476562 182.105469 150.222656 170.1875 160.066406 171.117188 C 169.910156 172.050781 176.484375 182.5625 176.09375 197.136719 C 175.707031 211.578125 165 224.132812 155.152344 223.203125 Z M 155.152344 223.203125 " fill-opacity="1" fill-rule="nonzero"/><path fill="#662c2a" d="M 156.265625 273.734375 C 164.265625 277.066406 176.59375 278.476562 188.363281 280.363281 C 201.796875 282.519531 215.300781 279.28125 220.441406 281.144531 C 216.339844 276.351562 212.238281 276.070312 208.132812 275.789062 C 204.03125 275.507812 197.574219 276.617188 188.511719 275.882812 C 185.597656 275.644531 175.398438 274.609375 167.527344 273.847656 C 163.175781 273.425781 156.265625 273.738281 156.265625 273.738281 Z M 156.265625 273.734375 " fill-opacity="1" fill-rule="nonzero"/><path fill="#fea937" d="M 143.234375 82.878906 C 142.195312 71.164062 152.84375 65.960938 157.261719 54.769531 C 158.71875 58.953125 162.8125 61.257812 163.234375 68.300781 C 163.652344 75.28125 165.570312 74.613281 166.953125 83.203125 C 168.523438 92.976562 160.183594 96.085938 154.921875 102.917969 C 153.105469 94.589844 147.390625 86.261719 143.234375 82.878906 Z M 143.234375 82.878906 " fill-opacity="1" fill-rule="nonzero"/><path fill="#34282c" d="M 139.339844 151.59375 C 129.207031 159.921875 116.21875 176.320312 111.804688 178.660156 C 125.832031 174.234375 138.816406 156.796875 139.339844 151.59375 Z M 139.339844 151.59375 " fill-opacity="1" fill-rule="nonzero"/><path fill="#34282c" d="M 119.859375 85.480469 C 124.015625 96.410156 135.703125 112.289062 140.636719 115.933594 C 135.960938 101.621094 119.859375 85.480469 119.859375 85.480469 Z M 119.859375 85.480469 " fill-opacity="1" fill-rule="nonzero"/><path fill="#34282c" d="M 148.171875 90.683594 C 149.46875 84.4375 154.925781 75.066406 156.222656 71.164062 C 157.261719 76.890625 151.285156 90.683594 149.988281 94.066406 C 148.691406 97.449219 148.171875 90.683594 148.171875 90.683594 Z M 148.171875 90.683594 " fill-opacity="1" fill-rule="nonzero"/><path fill="#fea937" d="M 139.632812 239.945312 C 124.628906 244.121094 112.773438 251.445312 109.058594 257.277344 C 105.339844 263.109375 103.773438 279.726562 105.527344 283.488281 C 110.964844 275.921875 117.679688 275.84375 122.46875 269.105469 C 127.257812 262.367188 137.789062 246.320312 141.164062 244.457031 C 132.613281 248.070312 123.835938 255.273438 116.257812 263.234375 C 120.105469 251.347656 139.632812 239.945312 139.632812 239.945312 Z M 139.632812 239.945312 " fill-opacity="1" fill-rule="nonzero"/><path fill="#fea937" d="M 137.160156 235.160156 C 112.457031 243.425781 99.894531 239.167969 95.484375 225.6875 C 106.300781 231.066406 121.808594 227.242188 137.160156 235.160156 Z M 137.160156 235.160156 " fill-opacity="1" fill-rule="nonzero"/><path fill="#662c2a" d="M 229.078125 278.804688 C 221.09375 269.042969 233.753906 267.675781 232.390625 261.820312 C 238.625 265.140625 229.273438 274.507812 229.078125 278.804688 Z M 229.078125 278.804688 " fill-opacity="1" fill-rule="nonzero"/><path fill="#34282c" d="M 277.519531 182.175781 C 276.351562 182.4375 274.664062 183.640625 274.664062 183.640625 C 269.304688 181.785156 260.445312 184.222656 255.832031 182.433594 C 262.292969 181.097656 271.449219 179.539062 273.753906 181.132812 C 275.929688 179.828125 277.390625 180.089844 277.910156 180.613281 C 278.433594 181.132812 277.519531 182.171875 277.519531 182.171875 Z M 277.519531 182.175781 " fill-opacity="1" fill-rule="nonzero"/><path fill="#fea937" d="M 272.410156 167.988281 C 272.417969 170.648438 275.597656 170.722656 275.273438 168.25 C 274.953125 165.777344 272.402344 165.414062 272.410156 167.988281 Z M 272.410156 167.988281 " fill-opacity="1" fill-rule="nonzero"/></svg>